<?xml version="1.0" encoding="iso-8859-1"?>
<!-- Uploaded to: SVG Repo, www.svgrepo.com, Generator: SVG Repo Mixer Tools -->
<svg fill="#000000" height="800px" width="800px" version="1.1" id="Layer_1" xmlns="http://www.w3.org/2000/svg" xmlns:xlink="http://www.w3.org/1999/xlink" 
	 viewBox="0 0 512.007 512.007" xml:space="preserve">
<g transform="translate(-1 -1)">
	<g>
		<g>
			<path d="M230.057,351.323c0,14.857,12.09,26.947,26.947,26.947s26.947-12.09,26.947-26.947v-35.93h-53.895V351.323z"/>
			<path d="M257.004,234.551c-14.857,0-26.947,12.09-26.947,26.947v35.93h53.895v-35.93
				C283.952,246.641,271.861,234.551,257.004,234.551z"/>
			<path d="M445.636,288.347c-0.018-48.191-14.345-94.046-22.887-117.104c-1.545-4.177-4.069-7.77-7.06-10.887l-24.298-80.995
				L373.507,7.816c-1.204-4.815-6.081-7.752-10.887-6.539c-4.815,1.204-7.743,6.081-6.539,10.887l15.171,60.703h-33.406V9.989
				c0-4.967-4.015-8.982-8.982-8.982c-4.967,0-8.982,4.015-8.982,8.982v62.877h-17.965V9.989c0-4.967-4.015-8.982-8.982-8.982
				s-8.982,4.015-8.982,8.982v62.877h-17.965V9.989c0-4.967-4.015-8.982-8.982-8.982s-8.982,4.015-8.982,8.982v62.877h-17.965V9.989
				c0-4.967-4.015-8.982-8.982-8.982s-8.982,4.015-8.982,8.982v62.877h-17.965V9.989c0-4.967-4.015-8.982-8.982-8.982
				c-4.967,0-8.982,4.015-8.982,8.982v62.877h-33.406l15.171-60.703c1.204-4.806-1.725-9.683-6.539-10.887
				c-4.815-1.222-9.683,1.725-10.887,6.539l-17.884,71.545L98.32,160.356c-2.991,3.117-5.515,6.701-7.06,10.887
				c-8.551,23.076-22.887,68.976-22.887,117.005c-0.108,4.824-1.94,118.748,57.083,177.736
				c2.282,1.922,56.706,47.023,131.548,47.023s129.267-45.101,132.105-47.544C447.217,407.355,445.762,294.455,445.636,288.347z
				 M301.917,351.323c0,24.765-20.148,44.912-44.912,44.912s-44.912-20.148-44.912-44.912v-89.825
				c0-24.765,20.148-44.912,44.912-44.912s44.912,20.148,44.912,44.912V351.323z M333.544,135.546
				c-25.043-5.893-50.796-8.839-76.539-8.839c-4.042,0-8.084,0.207-12.135,0.35c-16.932,0.611-33.81,2.47-50.445,5.632
				c-4.662,0.889-9.333,1.77-13.959,2.856l-13.087,3.072l-47.104,11.084l17.66-58.871h238.143l17.659,58.871L333.544,135.546z"/>
		</g>
	</g>
</g>
</svg>