<?xml version="1.0" encoding="iso-8859-1"?>
<!-- Uploaded to: SVG Repo, www.svgrepo.com, Generator: SVG Repo Mixer Tools -->
<!DOCTYPE svg PUBLIC "-//W3C//DTD SVG 1.1//EN" "http://www.w3.org/Graphics/SVG/1.1/DTD/svg11.dtd">
<svg fill="#000000" height="800px" width="800px" version="1.1" id="Capa_1" xmlns="http://www.w3.org/2000/svg" xmlns:xlink="http://www.w3.org/1999/xlink" 
	 viewBox="0 0 493.79 493.79" xml:space="preserve">
<g id="XMLID_299_">
	<path id="XMLID_302_" d="M388.432,187.714l-62.698-21.532l-37.787-39.809c-6.643-8.711-17.024-14.415-28.81-14.415h-24.484
		c-11.785,0-22.167,5.704-28.81,14.415l-37.787,39.809l-62.698,21.532c-10.155,3.482-15.554,14.537-12.071,24.691
		c0.616,1.794,1.546,3.378,2.581,4.849c4.242,161.209,66.332,276.536,151.026,276.536S393.68,378.463,397.922,217.254
		c1.034-1.472,1.965-3.055,2.581-4.849C403.986,202.25,398.586,191.196,388.432,187.714z M246.895,474.356
		c-71.152,0-125.699-105.61-131.431-249.452c0.846-0.171,1.679-0.144,2.515-0.428l67.206-23.079
		c2.962-1.014,5.628-2.732,7.781-5.001l5.343-5.628v28.081v4.659l-17.282,68.229c-0.521,2.041-0.065,4.204,1.225,5.866
		c1.291,1.659,3.275,2.629,5.382,2.629h10.675v109.32c0,10.732,8.703,19.435,19.434,19.435c10.732,0,19.435-8.703,19.435-19.435
		v-109.32h19.435v109.32c0,10.732,8.703,19.435,19.434,19.435c10.732,0,19.435-8.703,19.435-19.435v-109.32h10.676
		c2.106,0,4.09-0.97,5.382-2.629c1.29-1.662,1.744-3.825,1.224-5.866l-17.281-68.229v-4.659v-28.081l5.343,5.628
		c2.153,2.268,4.819,3.986,7.781,5.001l67.205,23.079c0.836,0.284,1.669,0.257,2.516,0.428
		C372.595,368.746,318.047,474.356,246.895,474.356z"/>
	<circle id="XMLID_301_" cx="246.895" cy="46.565" r="46.565"/>
	<path id="XMLID_300_" d="M179.272,71.675c10.514,0,19.036-8.522,19.036-19.037c0-10.505-8.523-19.026-19.036-19.026
		c-8.947,0-22.927,14.405-42.646,5.134c-1.955-0.911-4.271-0.475-5.75,1.091c-1.481,1.566-1.785,3.9-0.76,5.798
		C136.693,57.763,151.506,71.675,179.272,71.675z"/>
</g>
</svg>